<svg xmlns="http://www.w3.org/2000/svg" viewBox="0 0 439.49 486.81"><defs><style>.cls-1{fill:#a67a38;}.cls-2{fill:#62b2e4;}.cls-3{fill:#5c9e32;}.cls-4{fill:#fceb2f;}.cls-5{fill:#d23028;}.cls-6,.cls-7{fill:none;stroke:#010101;stroke-width:2px;}.cls-6{stroke-linecap:round;stroke-linejoin:round;}.cls-7{stroke-miterlimit:10;}.cls-8{fill:#6b4730;}.cls-9{fill:#fff;}.cls-10{fill:#010101;}</style></defs><title>animaisnaarte</title><g id="Camada_2" data-name="Camada 2"><g id="color"><path class="cls-1" d="M446.11,432c1.18-7.59,3.21-21.29-3.93-34.8-8.67-16.26-26.85-24.86-30.09-26.42-6.7-3.12-10.9-3.87-17.27-8.9-4.48-3.61-11.88-9.39-12.83-17.53-.83-6.87,3.51-10,13.35-25.9,7.75-12.51,11.56-18.85,13.34-25.91,3.83-15.29-1.49-28.73-3.93-34.8-5-12.61-13.62-24-34.28-39.5-14.34-10.77-38.35-26.31-77.72-40-19.9-7-51-16.77-76.73-20.72a212.21,212.21,0,0,0-65.16-.78,2.29,2.29,0,0,0-.56,0c-39.67,4-74.12,29.57-90.93,65.81C-30.92,417.22,301.44,618.75,423.88,475.21,427.32,470.43,442.48,455.84,446.11,432ZM292.73,288.8a26.81,26.81,0,1,1,24.55-47.67l23.4,12.06a26.81,26.81,0,0,1-24.55,47.66Z" transform="translate(-43.03 -38)"/><circle class="cls-2" cx="79.65" cy="194.69" r="29.14"/><circle class="cls-3" cx="82.8" cy="294.64" r="29.14"/><circle class="cls-4" cx="155.82" cy="365.02" r="29.14"/><circle class="cls-5" cx="246.62" cy="400.85" r="29.14"/></g><g id="line"><path class="cls-6" d="M446.11,432c1.18-7.59,3.21-21.29-3.93-34.8-8.67-16.26-26.85-24.86-30.09-26.42-6.7-3.12-10.9-3.87-17.27-8.9-4.48-3.61-11.88-9.39-12.83-17.53-.83-6.87,3.51-10,13.35-25.9,7.75-12.51,11.56-18.85,13.34-25.91,3.83-15.29-1.49-28.73-3.93-34.8-5-12.61-13.62-24-34.28-39.5-14.34-10.77-38.35-26.31-77.72-40-19.9-7-51-16.77-76.73-20.72a212.21,212.21,0,0,0-65.16-.78,2.29,2.29,0,0,0-.56,0c-39.67,4-74.12,29.57-90.93,65.81C-30.92,417.22,301.44,618.75,423.88,475.21,427.32,470.43,442.48,455.84,446.11,432ZM292.73,288.8a26.81,26.81,0,1,1,24.55-47.67l23.4,12.06a26.81,26.81,0,0,1-24.55,47.66Z" transform="translate(-43.03 -38)"/><circle class="cls-7" cx="79.65" cy="194.69" r="29.14"/><circle class="cls-6" cx="82.8" cy="294.64" r="29.14"/><circle class="cls-7" cx="155.82" cy="365.02" r="29.14"/><circle class="cls-7" cx="246.62" cy="400.85" r="29.14"/></g></g><g id="Camada_1" data-name="Camada 1"><g id="line-supplement"><path class="cls-6" d="M282.07,122.94a40.22,40.22,0,0,1,14.66-16.23c19.17-11.8,47.69-5,61.11,17.75C371.6,101.72,400,95.1,419,106.71a38.61,38.61,0,0,1,14.73,16.89" transform="translate(-43.03 -38)"/></g><g id="color-2" data-name="color"><path class="cls-8" d="M428.89,71.9c1.49,0,31.81-10.09,46.68,18.14,14.31,27.14,5.25,54.89-15.79,66.17" transform="translate(-43.03 -38)"/><path class="cls-8" d="M464.65,146.62C464.65,209.21,416,260,355.94,260S247.22,209.21,247.22,146.62,295.9,38,355.94,38,464.65,84,464.65,146.62Z" transform="translate(-43.03 -38)"/><path class="cls-8" d="M282.85,69.94c-1.57,0-34-10.91-49,19-13.3,26.46-2.12,56,16.58,64.67" transform="translate(-43.03 -38)"/><path class="cls-1" d="M310.59,246.18c-4.6-15.28-6.45-40.62-.3-68.36-1.6-.32-23.85-5.19-31.83-25.77-7.1-18.33.77-39.67,16.55-49.39,19.17-11.8,47.69-5,61.11,17.75,13.76-22.74,42.19-29.36,61.11-17.75,16.21,10,22.6,31.52,16.55,49.39-7.13,21.07-28.43,27.68-30.55,28.29,3.27,10.1,11,38.61-2.55,65.84-2.67,5.39-4.5,0-22.62,9.25" transform="translate(-43.03 -38)"/><path class="cls-9" d="M382.49,209.17c-.92,1.24-3.41,27.85-28.71,27.86-22.43,0-24.65-26.25-25.84-27.86Z" transform="translate(-43.03 -38)"/><path class="cls-1" d="M247.62,222.88c8.53-18.16-.85,4.05,7.68-14.11a138.54,138.54,0,0,1-7-32.41c-1.92-21.11.56-48.37,7-49.31,2.51-.36,6.68,3.17,13.74,21.83,11.78-14.3,37.89-29,40.76-25.43s-.41,11.73,0,16.2c12-5.58,17.89-6.5,19.32-4.86s-.37,7.83-8,20.11c14.12-3.43,18.59.55,17.86,3.72-2.75,12-12.23,27.43-29.15,44.42-9.5,9.54-21.48,11.9-29,13.48-2.76,23.22-2.17,10.91-4.93,34.13" transform="translate(-43.03 -38)"/><path class="cls-1" d="M461.07,224.23l-7.26-15.46a138.62,138.62,0,0,0,7-32.41c1.93-21.11-.55-48.37-7-49.31-2.52-.36-6.68,3.17-13.74,21.83-11.78-14.3-37.89-29-40.76-25.43s.41,11.73,0,16.2c-12-5.58-17.89-6.5-19.32-4.86s.37,7.83,8,20.11c-14.11-3.43-18.59.55-17.86,3.72,2.76,12,12.24,27.43,29.16,44.42,9.5,9.54,21.48,11.9,29,13.48,2.76,23.22,1.57,13.26,4.33,36.48" transform="translate(-43.03 -38)"/><path class="cls-8" d="M456.14,208.7c-.06-.13,0-.07,0,0Z" transform="translate(-43.03 -38)"/><path class="cls-8" d="M456.18,208.77,428.34,217s2.07,12.84,5.85,40.37l30.13-30.13C457.39,211.48,456.48,209.38,456.18,208.77Z" transform="translate(-43.03 -38)"/><path class="cls-8" d="M456.14,208.7l0,.07h0Z" transform="translate(-43.03 -38)"/><path class="cls-8" d="M254.83,208.81s0-2.68-9.08,17.53L272.9,255.9a.81.81,0,0,0,1.41-.47c2.94-24.64,7.51-38,7.51-38Z" transform="translate(-43.03 -38)"/></g><g id="line-2" data-name="line"><path class="cls-6" d="M429.37,73.4c1.5,0,32.35-10.39,46.69,18.13,7.72,15.35,5.78,28.85-.34,40.72" transform="translate(-43.03 -38)"/><path class="cls-6" d="M282,73.4c-1.49,0-32.35-10.39-46.68,18.13-7.3,14.51-6,27.37-.63,38.75" transform="translate(-43.03 -38)"/><path class="cls-6" d="M382.59,209.17c-.92,1.24-3.4,27.85-28.71,27.86-22.43,0-24.65-26.25-25.84-27.86Z" transform="translate(-43.03 -38)"/><ellipse class="cls-10" cx="303.87" cy="150.55" rx="4.53" ry="4.62"/><ellipse class="cls-10" cx="320.36" cy="150.55" rx="4.53" ry="4.62"/><path class="cls-6" d="M413.91,236.94a102.51,102.51,0,0,1-116.84.23" transform="translate(-43.03 -38)"/><path class="cls-6" d="M260.54,104.74c16.45-36.65,52.7-62.12,94.78-62.12,41.76,0,77.78,25.09,94.4,61.3" transform="translate(-43.03 -38)"/><path class="cls-6" d="M461.17,224.23l-7.26-15.46a138.54,138.54,0,0,0,7-32.41c1.92-21.11-.56-48.37-7-49.31-2.52-.36-6.68,3.17-13.74,21.83-11.78-14.3-37.89-29-40.76-25.43s.41,11.73,0,16.2c-12-5.58-17.89-6.5-19.32-4.86s.37,7.83,8,20.11c-14.11-3.43-18.59.55-17.85,3.72,2.75,12,12.23,27.43,29.15,44.42,9.5,9.54,21.48,11.9,29,13.48,2.76,23.22,1.57,13.26,4.33,36.48" transform="translate(-43.03 -38)"/><path class="cls-6" d="M248.77,222.88l6.63-14.11a138.54,138.54,0,0,1-7-32.41c-1.92-21.11.56-48.37,7-49.31,2.52-.36,6.68,3.17,13.74,21.83,11.78-14.3,37.89-29,40.76-25.43s-.41,11.73,0,16.2c12-5.58,17.89-6.5,19.32-4.86s-.37,7.83-8,20.11c14.12-3.43,18.59.55,17.86,3.72-2.75,12-12.23,27.43-29.15,44.42-9.5,9.54-21.48,11.9-29,13.48-2.76,23.22-1.58,13.26-4.34,36.48" transform="translate(-43.03 -38)"/></g></g></svg>