<svg xmlns="http://www.w3.org/2000/svg" viewBox="0 0 473.93 436.99"><defs><style>.cls-1{fill:#fceb2f;}.cls-2{fill:#5c9e32;}.cls-3{fill:#f0b21d;}.cls-4{fill:none;stroke:#010101;stroke-linecap:round;stroke-linejoin:round;stroke-width:2px;}.cls-5,.cls-6{fill:#d0cfce;}.cls-6{stroke:#d0cfce;stroke-miterlimit:10;stroke-width:1.8px;}.cls-7{fill:#a67a38;}</style></defs><title>animaisnojardim</title><g id="Camada_2" data-name="Camada 2"><g id="color"><path class="cls-1" d="M274.11,139.14a4.61,4.61,0,0,1,1.26-5.31l4.65-4a24.42,24.42,0,0,0-12.76-42.82l-6.05-.76a4.66,4.66,0,0,1-4-3.75l-1.1-6a24.42,24.42,0,0,0-43.46-10.36L209,71a4.67,4.67,0,0,1-5.23,1.55l-5.75-2A24.42,24.42,0,0,0,167.31,103l2.37,5.63a4.63,4.63,0,0,1-1.27,5.31l-4.65,4a24.42,24.42,0,0,0,12.76,42.82l6,.76a4.63,4.63,0,0,1,4,3.75l1.1,6a25.45,25.45,0,0,0,1.26,4.35c.13.33.26.64.4,1a24.18,24.18,0,0,0,1.85,3.53l.19.32a23.9,23.9,0,0,0,6.67,6.66h0a24.84,24.84,0,0,0,8,3.53,24.13,24.13,0,0,0,25.11-9l3.69-4.86a4.63,4.63,0,0,1,5.23-1.56l5.75,2.05a24.42,24.42,0,0,0,30.71-32.46Z" transform="translate(-13.11 -50.91)"/><path class="cls-2" d="M77.91,103.14c-2.92,9.24-8.55,32.31.57,51.14s30.69,28.72,39.75,32.15c2.92-9.24,8.55-32.31-.57-51.14h0C108.51,116.41,87,106.56,77.91,103.14Z" transform="translate(-13.11 -50.91)"/><path class="cls-3" d="M226.17,105.91a18.48,18.48,0,1,0,13.69,22.26A18.48,18.48,0,0,0,226.17,105.91Z" transform="translate(-13.11 -50.91)"/></g><g id="line"><circle class="cls-4" cx="208.78" cy="72.98" r="23.1"/><path class="cls-4" d="M121.81,133.28c12.71,26.23-.74,59-.74,59s-34-9.76-46.76-36,.74-59,.74-59S109.1,107,121.81,133.28Z" transform="translate(-13.11 -50.91)"/><path class="cls-4" d="M162.86,183.67c-19.25,12.26-45.47,37.82-48.4,86.94" transform="translate(-13.11 -50.91)"/><path class="cls-4" d="M260.69,75.7l1.1,6,6,.77A29,29,0,0,1,283,133.39l-4.64,4,2.36,5.63a29,29,0,0,1-36.52,38.6l-5.74-2-3.69,4.86a29,29,0,0,1-51.68-12.32l-1.1-6-6.05-.77a29,29,0,0,1-15.17-50.92l4.64-4-2.36-5.63a29,29,0,0,1,36.51-38.6l5.75,2L209,63.38A29,29,0,0,1,260.69,75.7Z" transform="translate(-13.11 -50.91)"/></g></g><g id="Camada_1" data-name="Camada 1"><g id="color-2" data-name="color"><path class="cls-5" d="M508.88,83.52" transform="translate(-13.11 -50.91)"/><path class="cls-6" d="M218.12,271.91S-8.87,159.21,16,275s80.27,43.3,107.94,77.72,50.53-.76,50.53-.76l54.86,19.4" transform="translate(-13.11 -50.91)"/><path class="cls-6" d="M295.74,255.65S456.28,59,481.26,175.26,425.9,248,414.84,290.91,368.46,311,368.46,311l-42.22,39.48" transform="translate(-13.11 -50.91)"/><ellipse class="cls-1" cx="250.73" cy="234.9" rx="39.65" ry="29.74" transform="translate(-56.84 6.97) rotate(-12.12)"/><ellipse class="cls-7" cx="261.13" cy="283.36" rx="39.65" ry="19.83" transform="translate(-66.78 10.23) rotate(-12.12)"/><path class="cls-1" d="M256,306.44C134.27,338.88,304.84,486.9,304.84,486.9S419,263,256,306.44Z" transform="translate(-13.11 -50.91)"/></g><g id="line-2" data-name="line"><line class="cls-4" x1="211.12" y1="155.04" x2="184.28" y2="124.48"/><line class="cls-4" x1="253.29" y1="146.83" x2="261.81" y2="107.82"/><ellipse class="cls-4" cx="250.73" cy="234.9" rx="39.65" ry="29.74" transform="translate(-56.84 6.97) rotate(-12.12)"/><ellipse class="cls-4" cx="261.13" cy="283.36" rx="39.65" ry="19.83" transform="translate(-66.78 10.23) rotate(-12.12)"/><path class="cls-4" d="M256,306.44C134.27,338.88,304.84,486.9,304.84,486.9S419,263,256,306.44Z" transform="translate(-13.11 -50.91)"/><path class="cls-4" d="M218.2,272.3S-8.94,158.85,16,275.16s80.33,43.58,108,78.19,50.55-.71,50.55-.71" transform="translate(-13.11 -50.91)"/><path class="cls-4" d="M368.46,311s35.32,22.83,46.38-20.1,91.39.66,66.42-115.65-185.52,80.39-185.52,80.39" transform="translate(-13.11 -50.91)"/></g></g></svg>