<svg id="Camada_2" data-name="Camada 2" xmlns="http://www.w3.org/2000/svg" viewBox="0 0 461.83 320.53"><defs><style>.cls-1{fill:#f9b233;}.cls-2,.cls-4{fill:none;}.cls-2{stroke:#fff;}.cls-2,.cls-3,.cls-4,.cls-5{stroke-miterlimit:10;}.cls-2,.cls-3,.cls-4{stroke-width:4px;}.cls-3,.cls-5,.cls-8{fill:#1d1d1b;}.cls-3,.cls-4,.cls-5{stroke:#1d1d1b;}.cls-6{fill:#f39200;}.cls-7{fill:#fff;}</style></defs><title>monarca</title><g id="asa"><path class="cls-1" d="M231,254.71l0-.08,0-.18c-11.22-21.19-33.55-56.31-74.15-84.29-24.74-17-59.17-40.77-83.52-28.8-36.4,17.9-41.06,111.06-1.44,136.08,6.61,4.18,17.23,8.21,33.84,6.48-28.11,15.5-33.77,32.86-35.28,39.6C60.25,369.05,124.52,433,181.32,422.16c15.1-2.87,57.56-46.92,59.75-92-.45-3.34-.89-6.68-1.34-10Q235.37,287.45,231,254.71Z" transform="translate(-19.68 -107.78)"/><path class="cls-2" d="M70.27,277.2c-43-51.36-16.56-80.16-47.52-158.4,25.3,2.63,79.31,11.77,132.48,51.12a268.2,268.2,0,0,1,74.15,84.29l0,.14a.6.6,0,0,0,0,.12q4.38,32.84,8.77,65.67c.44,3.27.87,6.55,1.31,9.83-2.19,45-43.88,84.88-59.75,91.95-52.82,23.53-121.06-53.11-110.88-98.64,1.51-6.75,7.17-24.1,35.28-39.6C89.15,284.28,75.88,283.91,70.27,277.2Z" transform="translate(-19.68 -107.78)"/><path class="cls-2" d="M104.11,283.68c-3.34,3.13-7.43,24.81-4.15,53.52,3.62,31.71,57.55,69.48,101.7,67.85" transform="translate(-19.68 -107.78)"/><path class="cls-2" d="M98.75,283.85A368.76,368.76,0,0,1,67.56,156.24L182.69,193.3" transform="translate(-19.68 -107.78)"/><path class="cls-2" d="M128.76,203.28l-53.28,3.36" transform="translate(-19.68 -107.78)"/><path class="cls-2" d="M159,224.88,82,238.47" transform="translate(-19.68 -107.78)"/><path class="cls-2" d="M91.44,266.21l38.87-4.61,100.7,5c-31.53-21.55-55.09-34-72-41.76-7.42-3.38-19.66-8.91-30.24-21.6A76,76,0,0,1,113.3,171" transform="translate(-19.68 -107.78)"/><path class="cls-2" d="M227.4,282.48l-54,7.2L163,296.88l-16.2,19.44-15.65,20.16,12.77,7.91,29.61-11.51Z" transform="translate(-19.68 -107.78)"/><path class="cls-2" d="M104.11,283.68l54.89-1.2,36-3.6,38.71-6.33" transform="translate(-19.68 -107.78)"/><path class="cls-2" d="M98.92,309.11l64-12.23" transform="translate(-19.68 -107.78)"/><line class="cls-2" x1="79.55" y1="221.56" x2="127.08" y2="208.55"/><line class="cls-2" x1="86.76" y1="246.84" x2="111.43" y2="228.71"/><line class="cls-2" x1="109.08" y1="270.86" x2="124.2" y2="236.61"/><line class="cls-2" x1="130.53" y1="284.46" x2="153.81" y2="225.11"/><line class="cls-2" x1="155.8" y1="294.15" x2="215.37" y2="189.11"/><path class="cls-2" d="M532,178.8" transform="translate(-19.68 -107.78)"/><path class="cls-3" d="M98.75,278.28a368.61,368.61,0,0,1-31.19-127.6c14.65-.93,69.47,0,115.12,37a263.61,263.61,0,0,0-27.45-23.37C102.06,125,48.05,115.87,22.75,113.24c31,78.24,4.56,107,47.52,158.4C75.2,277.53,86.05,278.53,98.75,278.28Z" transform="translate(-19.68 -107.78)"/><path class="cls-3" d="M201.66,399.49c-48.54-3.42-88.65-30-101.7-67.85-6.7-19.43-4.82-37.65-2.06-49.83-22.75,14.47-27.68,29.69-29.07,35.91-10.18,45.53,58.06,122.17,110.88,98.64,5.27-2.35,13.38-8.31,21.95-16.87Z" transform="translate(-19.68 -107.78)"/><path class="cls-4" d="M70.27,271.64c-43-51.36-16.56-80.16-47.52-158.4,25.3,2.63,79.31,11.76,132.48,51.12a268.19,268.19,0,0,1,74.15,84.28l0,.15a.5.5,0,0,0,0,.12q4.38,32.84,8.77,65.66c.44,3.28.87,6.56,1.31,9.84-2.19,45-43.88,84.88-59.75,91.95-52.82,23.53-121.06-53.11-110.88-98.64,1.51-6.75,7.17-24.11,35.28-39.6C89.15,278.71,75.88,278.35,70.27,271.64Z" transform="translate(-19.68 -107.78)"/><path class="cls-4" d="M104.11,278.12c-3.34,3.13-7.43,24.8-4.15,53.52,3.62,31.71,57.55,69.48,101.7,67.85" transform="translate(-19.68 -107.78)"/><path class="cls-4" d="M98.75,278.28a368.61,368.61,0,0,1-31.19-127.6l115.13,37.06" transform="translate(-19.68 -107.78)"/><path class="cls-4" d="M128.76,197.72l-53.28,3.36" transform="translate(-19.68 -107.78)"/><path class="cls-4" d="M159,219.32,82,232.91" transform="translate(-19.68 -107.78)"/><path class="cls-4" d="M91.44,260.65,130.31,256l100.7,5c-31.53-21.55-55.09-34-72-41.76-7.42-3.39-19.66-8.91-30.24-21.6A76.07,76.07,0,0,1,113.3,165.4" transform="translate(-19.68 -107.78)"/><path class="cls-4" d="M227.4,276.92l-54,7.2L163,291.32l-16.2,19.44-15.65,20.16,12.77,7.91,29.61-11.51Z" transform="translate(-19.68 -107.78)"/><path class="cls-4" d="M104.11,278.12l54.89-1.2,36-3.6L233.71,267" transform="translate(-19.68 -107.78)"/><path class="cls-4" d="M98.92,303.55l64-12.23" transform="translate(-19.68 -107.78)"/><line class="cls-4" x1="79.55" y1="216" x2="127.08" y2="202.98"/><line class="cls-4" x1="86.76" y1="241.27" x2="111.43" y2="223.14"/><line class="cls-4" x1="109.08" y1="265.3" x2="124.2" y2="231.05"/><line class="cls-4" x1="130.53" y1="278.9" x2="153.81" y2="219.54"/><line class="cls-4" x1="155.8" y1="288.58" x2="215.37" y2="183.54"/><path class="cls-4" d="M532,173.24" transform="translate(-19.68 -107.78)"/></g><g id="asa-2" data-name="asa"><path class="cls-1" d="M270.21,251.58l0-.08,0-.18C281.42,230.13,303.76,195,344.35,167c24.75-17,59.18-40.77,83.52-28.8,36.41,17.9,41.06,111.06,1.44,136.08-6.61,4.18-17.22,8.21-33.84,6.48,28.11,15.5,33.77,32.86,35.28,39.6,10.19,45.53-54.07,109.46-110.88,98.64-15.09-2.87-57.56-46.92-59.74-91.95.44-3.34.89-6.68,1.33-10Q265.84,284.32,270.21,251.58Z" transform="translate(-19.68 -107.78)"/><path class="cls-2" d="M430.92,274.07c43-51.36,16.56-80.16,47.52-158.4-25.29,2.63-79.3,11.77-132.48,51.12a268.33,268.33,0,0,0-74.15,84.29v.14s0,.09,0,.12Q267.43,284.18,263,317q-.65,4.9-1.31,9.83c2.19,45,43.88,84.88,59.75,92,52.82,23.53,121.07-53.11,110.88-98.64-1.51-6.75-7.17-24.1-35.28-39.6C412,281.15,425.31,280.78,430.92,274.07Z" transform="translate(-19.68 -107.78)"/><path class="cls-2" d="M397.08,280.55c3.34,3.13,7.43,24.81,4.15,53.52-3.62,31.71-57.54,69.48-101.7,67.85" transform="translate(-19.68 -107.78)"/><path class="cls-2" d="M402.44,280.72a368.76,368.76,0,0,0,31.19-127.61L318.5,190.17" transform="translate(-19.68 -107.78)"/><path class="cls-2" d="M372.43,200.15l53.28,3.36" transform="translate(-19.68 -107.78)"/><path class="cls-2" d="M342.19,221.75l77,13.59" transform="translate(-19.68 -107.78)"/><path class="cls-2" d="M409.75,263.08l-38.87-4.61-100.69,5c31.52-21.55,55.08-34,72-41.76,7.42-3.38,19.67-8.91,30.24-21.6a76.08,76.08,0,0,0,15.47-32.31" transform="translate(-19.68 -107.78)"/><path class="cls-2" d="M273.79,279.35l54,7.2,10.44,7.2,16.2,19.44,15.66,20.16-12.78,7.91L327.7,329.75Z" transform="translate(-19.68 -107.78)"/><path class="cls-2" d="M397.08,280.55l-54.89-1.2-36-3.6-38.71-6.33" transform="translate(-19.68 -107.78)"/><path class="cls-2" d="M402.27,306l-64-12.23" transform="translate(-19.68 -107.78)"/><line class="cls-2" x1="382.29" y1="218.43" x2="334.75" y2="205.42"/><line class="cls-2" x1="375.07" y1="243.71" x2="350.41" y2="225.58"/><line class="cls-2" x1="352.75" y1="267.73" x2="337.63" y2="233.48"/><line class="cls-2" x1="331.31" y1="281.33" x2="308.02" y2="221.98"/><line class="cls-2" x1="306.04" y1="291.02" x2="246.47" y2="185.98"/><path class="cls-2" d="M-30.77,175.67" transform="translate(-19.68 -107.78)"/><path class="cls-3" d="M402.44,275.15a368.61,368.61,0,0,0,31.19-127.6c-14.65-.93-69.47,0-115.11,37A263.46,263.46,0,0,1,346,161.23c53.18-39.36,107.19-48.49,132.48-51.12-31,78.24-4.56,107-47.52,158.4C426,274.4,415.14,275.4,402.44,275.15Z" transform="translate(-19.68 -107.78)"/><path class="cls-3" d="M299.53,396.36c48.54-3.42,88.66-30,101.7-67.85,6.7-19.43,4.82-37.65,2.07-49.83C426,293.15,431,308.37,432.36,314.59c10.19,45.53-58.06,122.17-110.88,98.64-5.27-2.35-13.38-8.31-22-16.87Z" transform="translate(-19.68 -107.78)"/><path class="cls-4" d="M430.92,268.51c43-51.36,16.56-80.16,47.52-158.4-25.29,2.63-79.3,11.76-132.48,51.12a268.32,268.32,0,0,0-74.15,84.28v.15s0,.08,0,.12q-4.38,32.84-8.77,65.66-.65,4.92-1.31,9.84c2.19,45,43.88,84.88,59.75,92,52.82,23.53,121.07-53.11,110.88-98.64-1.51-6.75-7.17-24.11-35.28-39.6C412,275.58,425.31,275.22,430.92,268.51Z" transform="translate(-19.68 -107.78)"/><path class="cls-4" d="M397.08,275c3.34,3.13,7.43,24.8,4.15,53.52-3.62,31.71-57.54,69.48-101.7,67.85" transform="translate(-19.68 -107.78)"/><path class="cls-4" d="M402.44,275.15a368.61,368.61,0,0,0,31.19-127.6L318.5,184.61" transform="translate(-19.68 -107.78)"/><path class="cls-4" d="M372.43,194.59,425.71,198" transform="translate(-19.68 -107.78)"/><path class="cls-4" d="M342.19,216.19l77,13.59" transform="translate(-19.68 -107.78)"/><path class="cls-4" d="M409.75,257.51l-38.87-4.6-100.69,5c31.52-21.55,55.08-34,72-41.76,7.42-3.39,19.67-8.91,30.24-21.6a76.11,76.11,0,0,0,15.47-32.32" transform="translate(-19.68 -107.78)"/><path class="cls-4" d="M273.79,273.79l54,7.2,10.44,7.2,16.2,19.44,15.66,20.16-12.78,7.91L327.7,324.19Z" transform="translate(-19.68 -107.78)"/><path class="cls-4" d="M397.08,275l-54.89-1.2-36-3.6-38.71-6.33" transform="translate(-19.68 -107.78)"/><path class="cls-4" d="M402.27,300.42l-64-12.23" transform="translate(-19.68 -107.78)"/><line class="cls-4" x1="382.29" y1="212.87" x2="334.75" y2="199.85"/><line class="cls-4" x1="375.07" y1="238.14" x2="350.41" y2="220.01"/><line class="cls-4" x1="352.75" y1="262.17" x2="337.63" y2="227.92"/><line class="cls-4" x1="331.31" y1="275.77" x2="308.02" y2="216.41"/><line class="cls-4" x1="306.04" y1="285.45" x2="246.47" y2="180.41"/><path class="cls-4" d="M-30.77,170.11" transform="translate(-19.68 -107.78)"/></g><path class="cls-5" d="M261.72,323.38l10.09-75.55a28,28,0,0,0-20.17-23.09c-7.06,2-10.95,5.33-13.24,8.16-4.6,5.71-7.21,15.17-7.21,15.17q5,37.79,10.09,75.55l5.15,8.35.86,2.33c1.11,7.6-4.24,11.61-5.29,23.16-.38,4.19-1.13,12.56,3.25,17.06l6.47,3.58,6-3.8c4.4-4.5,3.65-12.89,3.27-17.08-.71-7.82-3.39-12.18-4.71-16.54l-.33-7.92v0C256.53,329.63,258.27,326.47,261.72,323.38Z" transform="translate(-19.68 -107.78)"/><path class="cls-6" d="M529.08,170.36" transform="translate(-19.68 -107.78)"/><path class="cls-1" d="M596,192" transform="translate(-19.68 -107.78)"/><ellipse class="cls-7" cx="434.06" cy="30.22" rx="10.16" ry="15.12"/><ellipse class="cls-7" cx="425.61" cy="71.56" rx="8.45" ry="13.31"/><ellipse class="cls-7" cx="423.68" cy="103.57" rx="6.52" ry="9.6"/><ellipse class="cls-7" cx="416.19" cy="129.84" rx="5.08" ry="7.56"/><ellipse class="cls-7" cx="410.63" cy="147.66" rx="5.08" ry="7.56"/><ellipse class="cls-7" cx="399.49" cy="199.85" rx="5.08" ry="7.56"/><ellipse class="cls-7" cx="399.49" cy="225.58" rx="5.08" ry="7.56"/><ellipse class="cls-7" cx="394.41" cy="250.61" rx="5.08" ry="7.56"/><ellipse class="cls-7" cx="379.39" cy="267.73" rx="5.08" ry="7.56"/><ellipse class="cls-7" cx="362.74" cy="281.33" rx="5.08" ry="7.56"/><ellipse class="cls-7" cx="314.58" cy="298.58" rx="5.08" ry="7.56"/><ellipse class="cls-7" cx="338.66" cy="294.2" rx="5.08" ry="7.56"/><ellipse class="cls-7" cx="29.56" cy="28.46" rx="10.16" ry="15.12"/><ellipse class="cls-7" cx="38.01" cy="69.81" rx="8.45" ry="13.31"/><ellipse class="cls-7" cx="39.95" cy="101.82" rx="6.52" ry="9.6"/><ellipse class="cls-7" cx="47.43" cy="128.09" rx="5.08" ry="7.56"/><ellipse class="cls-7" cx="52.99" cy="145.91" rx="5.08" ry="7.56"/><ellipse class="cls-7" cx="64.13" cy="198.1" rx="5.08" ry="7.56"/><ellipse class="cls-7" cx="64.13" cy="223.82" rx="5.08" ry="7.56"/><ellipse class="cls-7" cx="69.21" cy="248.86" rx="5.08" ry="7.56"/><ellipse class="cls-7" cx="84.23" cy="265.98" rx="5.08" ry="7.56"/><ellipse class="cls-7" cx="100.88" cy="279.58" rx="5.08" ry="7.56"/><ellipse class="cls-7" cx="149.04" cy="296.83" rx="5.08" ry="7.56"/><ellipse class="cls-7" cx="124.96" cy="292.45" rx="5.08" ry="7.56"/><path class="cls-8" d="M256,228.92c15.21-35.94,18.63-52.12,18.18-59.84-.08-1.42-.68-9,3.9-15,.18-.24,4-5.22,6.24-4.32,2.68,1.08,2.67,10.55-1.42,17.52a20.26,20.26,0,0,1-2.18,3c-3.65,4.15-9.83,20-20.88,63.93Z" transform="translate(-19.68 -107.78)"/><path class="cls-8" d="M244.9,226.86c-15.21-35.94-18.63-52.13-18.18-59.84.08-1.42.67-9-3.9-15-.18-.24-4-5.22-6.24-4.32-2.68,1.08-2.67,10.54,1.42,17.51a20,20,0,0,0,2.18,3c3.65,4.15,9.83,20,20.88,63.93Z" transform="translate(-19.68 -107.78)"/></svg>