<svg id="Camada_1" data-name="Camada 1" xmlns="http://www.w3.org/2000/svg" viewBox="0 0 428.56 315.59"><defs><style>.cls-1{fill:#f9b233;}.cls-2{fill:#f39200;}.cls-3{fill:none;stroke:#010101;stroke-linecap:round;stroke-linejoin:round;stroke-width:2px;}</style></defs><title>nemo</title><path class="cls-1" d="M143.65,189.26C111,158,54.11,135.41,47.88,172.79c-8.43,50.53,32.79,89.31,32.79,89.31-43,30.35-41.21,96-41.22,96,56.85,9.47,89.72-10.36,107.59-29.53C136.72,285.54,134.77,231,143.65,189.26Z" transform="translate(-39.44 -96.04)"/><path class="cls-1" d="M460.56,248.59c-4.1-36.88-28.14-59.8-51.74-73.62-4,51.95-26.83,133.07-12.6,178.93,60.42-27.9,61.18-69.52,61.18-69.52l-22.11-18.95Z" transform="translate(-39.44 -96.04)"/><path class="cls-1" d="M359.49,156c-33.69-84.22-126.33-50.53-126.33-50.53-8.42,25.26,0,67.37,0,67.37A88.07,88.07,0,0,0,200.68,187c-5.28,43.72-12.77,98.84-5.92,140.79,36.87,31.54,65.9,37.87,79.86,38.85-25-45.33-33.16-139.33-15.89-197.32l55.69-7.36c-6.52,61.3-24.33,158.69,7.57,201.64.65.87,1.75,2.29,3,4H283.47l-8.2,41C328.33,421.87,351.36,388,358.76,373c-22-51.2-14.89-161.65,2.72-216.6C360.2,156.08,359.49,156,359.49,156Z" transform="translate(-39.44 -96.04)"/><path class="cls-2" d="M293.71,203.65s-148,43.93-7.8,99.63" transform="translate(-39.44 -96.04)"/><g id="line"><path class="cls-3" d="M87.12,260.37s-41.22-38.77-32.8-89.3,109.49,8.42,117.91,50.53c0,0,25.27-42.11,67.38-50.53,0,0-8.43-42.11,0-67.38,0,0,92.64-33.69,126.33,50.53,0,0,92.64,16.85,101.06,92.65l-25.27,16.84,22.11,19s-1,56.31-95.78,81.84c0,0-19,59.23-86.34,42.38l8.42-42.11s-50.53,8.43-117.91-67.37c0,0-25.27,75.8-126.33,59C45.9,356.35,44.11,290.73,87.12,260.37Z" transform="translate(-39.44 -96.04)"/><path class="cls-3" d="M288.53,201S146,246,279.8,297" transform="translate(-39.44 -96.04)"/></g></svg>