<svg xmlns="http://www.w3.org/2000/svg" viewBox="0 0 430.23 416.04"><defs><style>.cls-1{fill:#6b4730;}.cls-2{fill:none;stroke:#010101;stroke-linecap:round;stroke-linejoin:round;stroke-width:2px;}.cls-3{fill:#b2cc36;}</style></defs><title>sauva</title><g id="Camada_1" data-name="Camada 1"><g id="color"><ellipse class="cls-1" cx="312.8" cy="350.48" rx="62.31" ry="40.05" transform="translate(-184.91 298.85) rotate(-52.87)"/><ellipse class="cls-1" cx="256.03" cy="307.5" rx="44.5" ry="28.61" transform="translate(-173.14 236.55) rotate(-52.87)"/><ellipse class="cls-1" cx="149.59" cy="226.91" rx="62.31" ry="102.36" transform="translate(-151.08 119.75) rotate(-52.87)"/></g><g id="line"><polyline class="cls-2" points="279.6 194.45 356.34 152.07 429.23 173.77"/><polyline class="cls-2" points="225.87 265.41 205.9 350.77 246.55 415.04"/><polyline class="cls-2" points="197.49 243.92 138.38 321.98 143.56 359.38"/><polyline class="cls-2" points="251.22 172.96 310.32 94.9 347.73 89.73"/><polyline class="cls-2" points="230.82 168.68 218.96 36.89 156.82 1"/><polyline class="cls-2" points="187.83 225.44 52.4 256.87 1 206.79"/><polyline class="cls-2" points="336.68 266.51 373.57 276.77 382.39 294.61"/><polyline class="cls-2" points="312.95 297.85 332.83 330.58 352.4 334.23"/><ellipse class="cls-2" cx="321.23" cy="348.93" rx="62.31" ry="40.05" transform="translate(-180.33 304.95) rotate(-52.87)"/><ellipse class="cls-2" cx="264.46" cy="305.94" rx="44.5" ry="28.61" transform="translate(-168.56 242.66) rotate(-52.87)"/><ellipse class="cls-2" cx="158.02" cy="225.35" rx="62.31" ry="102.36" transform="translate(-146.49 125.85) rotate(-52.87)"/></g></g><g id="Camada_2" data-name="Camada 2"><g id="color-2" data-name="color"><path class="cls-3" d="M318.44,269.09c3.65-69.5,69.06-121.47,69.06-121.47s58.81,60.13,54.72,128.08-69.06,121.47-69.06,121.47S314.79,338.59,318.44,269.09Z" transform="translate(-29.47 -89.44)"/></g><g id="line-2" data-name="line"><path class="cls-2" d="M321.61,265.69c3.65-69.51,69.06-121.47,69.06-121.47s58.81,60.12,54.72,128.08-69.06,121.46-69.06,121.46S318,335.19,321.61,265.69Z" transform="translate(-29.47 -89.44)"/><line class="cls-2" x1="346.09" y1="330.47" x2="344.77" y2="303.3"/></g></g></svg>