<svg xmlns="http://www.w3.org/2000/svg" viewBox="0 0 432.8 530.86"><defs><style>.cls-1{fill:#d23028;}.cls-2{fill:#f0b21d;}.cls-3{fill:#20519f;}.cls-4{fill:#fceb2f;}.cls-5{fill:#fff;}.cls-6,.cls-7{fill:none;stroke:#010101;stroke-width:2px;}.cls-6{stroke-miterlimit:10;}.cls-7{stroke-linecap:round;stroke-linejoin:round;}.cls-8{fill:#3f3f3f;}</style></defs><title>sonsdosanimais</title><g id="Camada_1" data-name="Camada 1"><g id="color"><path class="cls-1" d="M173.55,244.51a54.56,54.56,0,0,1-22.72-44,56.44,56.44,0,0,1,57.42-55.4,57.71,57.71,0,0,1,57.38,53.08c1.31,23.38,0,47.15,0,70.56v12.73c11.19,13.35,30,40.34,44.17,119.32,3,16.62,33.05,91.05,35.34,119.33-5.89,2.84-11.78,14.2-17.67,17-3.08-12.7-36.33-90.48-53-102.27a63.3,63.3,0,0,0-17.67-8.53c-15.73-5.3-29.13-9.83-40.52-14.1A45.18,45.18,0,0,1,195,417.86c-34.15,0-61.84-40.07-61.84-89.5C133.16,289.87,150,257.14,173.55,244.51Z" transform="translate(-33.02 -7.32)"/><path class="cls-2" d="M144.65,215.28l0-.11,13,16.56a25.9,25.9,0,0,1-39.85-5.59Z" transform="translate(-33.02 -7.32)"/><path class="cls-1" d="M159.41,332.62c-.08-26.75,12.09-53.11,38.67-64.05a53.7,53.7,0,0,1,41.1,0c22.19,9.52,34.35,33.31,42.64,56a497.43,497.43,0,0,1,19.48,70c2,9.52,3.25,19.23,4.81,28.82,1.19,7.33,8.37,27.43,5.56,34.29-4.11,10-43.22-3.55-52-7a190.29,190.29,0,0,1-51.53-31.34,145.12,145.12,0,0,1-41.78-52.62A87.87,87.87,0,0,1,159.41,332.62Z" transform="translate(-33.02 -7.32)"/><path class="cls-3" d="M168.07,296.11c0,.81-.14,1.61-.14,2.42a87.87,87.87,0,0,0,6.95,34,145.17,145.17,0,0,0,41.78,52.61,190.19,190.19,0,0,0,51.54,31.34,177.42,177.42,0,0,0,38.67,10.4c2.17,8.9,7.23,24.77,4.8,30.72-4.11,10-43.22-3.55-52-7a190.26,190.26,0,0,1-51.53-31.33,145.12,145.12,0,0,1-41.78-52.62,87.87,87.87,0,0,1-7-34A77.54,77.54,0,0,1,168.07,296.11Z" transform="translate(-33.02 -7.32)"/><path class="cls-4" d="M151.37,170.91a54.49,54.49,0,0,0-6.54,44.37l-35.58,14.29a55.7,55.7,0,0,1-.6-7.75A49.59,49.59,0,0,1,151.37,170.91Z" transform="translate(-33.02 -7.32)"/><path class="cls-5" d="M168.35,164.06c-.93-.14-2-.15-3-.23a53.85,53.85,0,0,0,2.63,76.11,53.29,53.29,0,0,0,5.61,4.57c-.65.35-1.28.77-1.92,1.15a60.65,60.65,0,0,0,41.49-21.9,49.24,49.24,0,0,0,7.47-14.93C217.78,203,200.71,168.76,168.35,164.06Z" transform="translate(-33.02 -7.32)"/></g><g id="line"><path class="cls-6" d="M159.41,332.62c-.08-26.75,12.09-53.11,38.67-64.05a53.7,53.7,0,0,1,41.1,0c22.19,9.52,34.35,33.31,42.64,56a497.43,497.43,0,0,1,19.48,70c2,9.52,3.25,19.23,4.81,28.82,1.19,7.33,8.37,27.43,5.56,34.29-4.11,10-43.22-3.55-52-7a190.29,190.29,0,0,1-51.53-31.34,145.12,145.12,0,0,1-41.78-52.62A87.87,87.87,0,0,1,159.41,332.62Z" transform="translate(-33.02 -7.32)"/><path class="cls-7" d="M144.83,215.28l-35.58,14.29a55.7,55.7,0,0,1-.6-7.75,49.59,49.59,0,0,1,42.72-50.91" transform="translate(-33.02 -7.32)"/><path class="cls-7" d="M330.8,488.09a185.66,185.66,0,0,1,6.92,32.05c-5.69,2.84-11.37,14.2-17.05,17a376.86,376.86,0,0,0-17-43.49c-5.4-12.12-12.31-20.56-18.16-31.13" transform="translate(-33.02 -7.32)"/><path class="cls-7" d="M157.59,231.73a25.9,25.9,0,0,1-39.85-5.59" transform="translate(-33.02 -7.32)"/><line class="cls-7" x1="162.9" y1="417.92" x2="162.9" y2="470.16"/><line class="cls-7" x1="330" y1="470.16" x2="359.2" y2="470.16"/><line class="cls-7" x1="1" y1="471.45" x2="224.8" y2="471.45"/><path class="cls-7" d="M192.82,417.86c-32.95,0-59.66-40.07-59.66-89.5,0-38.49,16.24-71.22,39-83.85a55.3,55.3,0,0,1,33.48-99.39A56.54,56.54,0,0,1,261,198.2c.89,16.55.54,33.29.26,50-.12,6.88-.23,13.76-.23,20.6v12.73" transform="translate(-33.02 -7.32)"/><path class="cls-7" d="M173.55,244.51c-.65.35-1.28.77-1.92,1.15a60.65,60.65,0,0,0,41.49-21.9,49.24,49.24,0,0,0,7.47-14.93c-2.81-5.84-19.88-40.07-52.24-44.77-.93-.14-2-.15-3-.23" transform="translate(-33.02 -7.32)"/><line class="cls-7" x1="207.68" y1="440.31" x2="207.68" y2="470.16"/></g></g><g id="Camada_2" data-name="Camada 2"><g id="color-2" data-name="color"><polygon class="cls-8" points="282.28 80.38 390.51 22.23 383.88 1 275.52 61.2 282.28 80.38"/><circle class="cls-8" cx="328.79" cy="226.44" r="27.52" transform="translate(-83.8 95.39) rotate(-16.5)"/><circle class="cls-8" cx="404.27" cy="159.31" r="27.52"/></g><g id="line-2" data-name="line"><polygon class="cls-7" points="390.51 22.23 282.15 82.45 275.52 61.2 383.88 1 390.51 22.23"/><circle class="cls-7" cx="295.77" cy="219.11" r="27.52"/><line class="cls-7" x1="275.52" y1="61.2" x2="322.15" y2="211.3"/><circle class="cls-7" cx="404.27" cy="159.31" r="27.52"/><line class="cls-7" x1="384.02" y1="1.4" x2="430.66" y2="151.5"/></g></g></svg>